<?xml version="1.0" encoding="UTF-8"?>
<svg xmlns="http://www.w3.org/2000/svg" xmlns:xlink="http://www.w3.org/1999/xlink" viewBox="0 0 48 48" width="48px" height="48px">
<g id="surface82082154">
<path style=" stroke:none;fill-rule:nonzero;fill:rgb(20.392157%,59.607846%,85.882354%);fill-opacity:1;" d="M 48 16 L 48 14 L 40.46875 14 L 39.808594 16 Z M 33 31 L 33 29 L 27 29 L 27 31 Z M 39.765625 28 L 40.511719 26 L 34.511719 26 L 35.265625 28 Z M 29 26 L 33 26 L 33 28 L 29 28 Z M 29 23 L 33 23 L 33 25 L 29 25 Z M 42 29 L 42 31 L 48 31 L 48 29 Z M 36.179688 19 L 35.519531 17 L 27 17 L 27 19 Z M 37.171875 22 L 36.511719 20 L 29 20 L 29 22 Z M 33.378906 23 L 34.132812 25 L 40.882812 25 L 41.628906 23 Z M 42 23 L 46 23 L 46 25 L 42 25 Z M 27 32 L 33 32 L 33 34 L 27 34 Z M 35.191406 16 L 34.53125 14 L 27 14 L 27 16 Z M 36.777344 32 L 37.53125 34 L 38.277344 32 Z M 42 32 L 48 32 L 48 34 L 42 34 Z M 39.480469 17 L 38.820312 19 L 48 19 L 48 17 Z M 39.394531 29 L 35.644531 29 L 36.398438 31 L 38.648438 31 Z M 42 26 L 46 26 L 46 28 L 42 28 Z M 38.488281 20 L 37.828125 22 L 46 22 L 46 20 Z M 0 14 L 8 14 L 8 16 L 0 16 Z M 0 17 L 8 17 L 8 19 L 0 19 Z M 2 20 L 6 20 L 6 22 L 2 22 Z M 2 23 L 6 23 L 6 25 L 2 25 Z M 2 26 L 6 26 L 6 28 L 2 28 Z M 0 29 L 8 29 L 8 31 L 0 31 Z M 0 32 L 8 32 L 8 34 L 0 34 Z M 10 17 L 18 17 L 18 19 L 10 19 Z M 24.976562 16 C 24.0625 14.792969 22.628906 14 21 14 L 10 14 L 10 16 Z M 24.976562 16 "/>
<path style=" stroke:none;fill-rule:nonzero;fill:rgb(20.392157%,59.607846%,85.882354%);fill-opacity:1;" d="M 25.578125 17 L 16.445312 17 C 16.171875 17.613281 16 18.28125 16 19 L 26 19 C 26 18.289062 25.847656 17.613281 25.578125 17 Z M 23.976562 23 L 12 23 L 12 25 L 23.972656 25 C 23.140625 24.378906 22.117188 24 21 24 C 22.117188 24 23.140625 23.621094 23.976562 23 Z M 17.023438 32 L 10 32 L 10 34 L 21 34 C 22.628906 34 24.066406 33.207031 24.976562 32 Z M 18 29 L 10 29 L 10 31 L 25.578125 31 C 25.847656 30.386719 26 29.710938 26 29 Z M 21 20 C 21 20 21 20.082031 21 21 C 21 21.917969 20 22 20 22 L 24.980469 22 C 25.421875 21.414062 25.75 20.742188 25.898438 20 Z M 12 20 L 17 20 L 17 22 L 12 22 Z M 12 20 "/>
<path style=" stroke:none;fill-rule:nonzero;fill:rgb(20.392157%,59.607846%,85.882354%);fill-opacity:1;" d="M 21 28 L 25.886719 28 C 25.730469 27.261719 25.417969 26.582031 24.976562 26 L 20 26 C 20 26 21 26.167969 21 27 C 21 27.832031 21 28 21 28 Z M 12 26 L 17 26 L 17 28 L 12 28 Z M 12 26 "/>
</g>
</svg>
